<?xml version="1.0" encoding="UTF-8"?>
<svg version="1.1" xmlns="http://www.w3.org/2000/svg" width="250" height="250">
<path d="M0 0 C1.06863281 0.01804687 2.13726562 0.03609375 3.23828125 0.0546875 C4.04652344 0.07789062 4.85476562 0.10109375 5.6875 0.125 C5.3575 1.115 5.0275 2.105 4.6875 3.125 C5.6775 3.62 5.6775 3.62 6.6875 4.125 C7.41183347 6.10484481 8.06493972 8.11083438 8.6875 10.125 C9.24541705 11.54347779 9.80801765 12.96012131 10.375 14.375 C10.808125 15.6125 11.24125 16.85 11.6875 18.125 C11.3575 18.785 11.0275 19.445 10.6875 20.125 C11.3475 20.125 12.0075 20.125 12.6875 20.125 C13.0175 21.115 13.3475 22.105 13.6875 23.125 C13.3575 23.785 13.0275 24.445 12.6875 25.125 C13.3475 25.125 14.0075 25.125 14.6875 25.125 C15.0896875 26.61 15.0896875 26.61 15.5 28.125 C16.3006819 30.973803 17.27970485 33.68921354 18.375 36.4375 C18.808125 37.654375 19.24125 38.87125 19.6875 40.125 C19.3575 40.785 19.0275 41.445 18.6875 42.125 C19.3475 42.455 20.0075 42.785 20.6875 43.125 C23.06037351 46.60576568 22.86529017 49.69433512 22.75 53.8125 C22.69618201 55.91608147 22.6669572 58.02083048 22.6875 60.125 C23.0175 60.455 23.3475 60.785 23.6875 61.125 C23.77435603 62.68672745 23.79452219 64.25229344 23.78515625 65.81640625 C23.78193359 66.76064453 23.77871094 67.70488281 23.77539062 68.67773438 C23.76701172 69.67095703 23.75863281 70.66417969 23.75 71.6875 C23.74548828 72.68458984 23.74097656 73.68167969 23.73632812 74.70898438 C23.72450007 77.18104849 23.70801849 79.65299518 23.6875 82.125 C20.06776598 83.44126692 17.59182869 84.125 13.6875 84.125 C13.30686779 86.4510857 12.97480055 88.78555264 12.6875 91.125 C13.0175 91.455 13.3475 91.785 13.6875 92.125 C13.76006716 95.75335804 13.6835234 99.37154928 13.625 103 C13.32385467 105.9922967 13.32385467 105.9922967 14.6875 107.125 C14.6875 109.45833333 14.6875 111.79166667 14.6875 114.125 C14.90959735 116.41339589 15.18790729 118.69080919 15.46875 120.97265625 C15.74525759 123.69329343 15.6875 126.39274252 15.6875 129.125 C16.0175 129.455 16.3475 129.785 16.6875 130.125 C16.76006716 133.75335804 16.6835234 137.37154928 16.625 141 C16.32385467 143.9922967 16.32385467 143.9922967 17.6875 145.125 C17.6875 147.45833333 17.6875 149.79166667 17.6875 152.125 C18.0175 152.455 18.3475 152.785 18.6875 153.125 C18.76029623 156.42812897 18.68359386 159.7202085 18.625 163.0234375 C18.53461854 166.16143965 18.53461854 166.16143965 19.6875 169.125 C16.32628175 171.36581217 14.56309073 171.23758538 10.62890625 171.12890625 C8.51123955 171.12464535 6.69602998 171.45549001 4.6875 172.125 C5.0175 173.176875 5.3475 174.22875 5.6875 175.3125 C6.52716782 178.51373357 6.88500904 180.8661008 6.6875 184.125 C4.8621875 184.3415625 4.8621875 184.3415625 3 184.5625 C-0.14157377 184.95450657 -3.21333576 185.47254437 -6.3125 186.125 C-9.32785754 186.70240889 -12.05155664 187.13079874 -15.125 187.0625 C-17.90316105 187.11697375 -19.96080736 187.46357717 -22.625 188.125 C-26.61376999 189.08687877 -30.22926655 189.23515772 -34.31640625 189.12890625 C-36.74408928 189.1241554 -38.94524856 189.61316185 -41.3125 190.125 C-42.240625 190.104375 -43.16875 190.08375 -44.125 190.0625 C-47.34063914 190.12555175 -50.01301752 190.83694627 -53.09765625 191.68359375 C-56.42736656 192.34718681 -59.67304211 192.20899585 -63.0546875 192.12109375 C-65.42534211 192.04419926 -65.42534211 192.04419926 -68.125 192.75 C-71.86328981 193.39084968 -74.6374966 191.55583015 -77.7421875 189.57421875 C-78.95261719 188.70216797 -78.95261719 188.70216797 -80.1875 187.8125 C-81.04859375 187.19632813 -81.9096875 186.58015625 -82.796875 185.9453125 C-83.62703125 185.34460938 -84.4571875 184.74390625 -85.3125 184.125 C-86.68708111 183.14524538 -88.06201981 182.16599201 -89.4375 181.1875 C-90.38625 180.506875 -91.335 179.82625 -92.3125 179.125 C-92.9725 180.775 -93.6325 182.425 -94.3125 184.125 C-97.2825 184.455 -100.2525 184.785 -103.3125 185.125 C-103.34988281 185.82367188 -103.38726562 186.52234375 -103.42578125 187.2421875 C-103.49152344 188.15226563 -103.55726562 189.06234375 -103.625 190 C-103.68300781 190.90492188 -103.74101563 191.80984375 -103.80078125 192.7421875 C-104.3125 195.125 -104.3125 195.125 -107.3125 197.125 C-109.36328125 197.5390625 -109.36328125 197.5390625 -111.625 197.75 C-112.81029297 197.86214844 -112.81029297 197.86214844 -114.01953125 197.9765625 C-116.78605055 198.15565574 -119.541169 198.125 -122.3125 198.125 C-122.6425 198.455 -122.9725 198.785 -123.3125 199.125 C-124.80231573 199.34069281 -126.30095992 199.49611922 -127.80078125 199.625 C-128.72866455 199.7070166 -129.65654785 199.7890332 -130.61254883 199.87353516 C-131.60665771 199.95651855 -132.6007666 200.03950195 -133.625 200.125 C-135.14033325 200.25527588 -135.14033325 200.25527588 -136.6862793 200.38818359 C-138.6826455 200.55951653 -140.679144 200.72931612 -142.67578125 200.89746094 C-144.73316627 201.07500564 -146.788877 201.27198444 -148.84375 201.4765625 C-174.28646269 203.97795279 -174.28646269 203.97795279 -185 197.5 C-187.51729342 196.00323094 -189.4527656 195.66971131 -192.3125 195.125 C-194.65820085 194.15436517 -196.99270619 193.15601947 -199.3125 192.125 C-200.3025 191.795 -201.2925 191.465 -202.3125 191.125 C-202.3125 190.465 -202.3125 189.805 -202.3125 189.125 C-203.3025 189.455 -204.2925 189.785 -205.3125 190.125 C-207.34662421 189.19637808 -209.34497172 188.18746527 -211.3125 187.125 C-212.97160004 186.43971955 -214.63582564 185.76608137 -216.3125 185.125 C-216.3125 182.485 -216.3125 179.845 -216.3125 177.125 C-217.67375 176.939375 -217.67375 176.939375 -219.0625 176.75 C-221.93584269 176.1974341 -223.77842809 175.48017759 -226.3125 174.125 C-226.34143932 170.50001666 -226.35927792 166.87506287 -226.375 163.25 C-226.38337891 162.21746094 -226.39175781 161.18492187 -226.40039062 160.12109375 C-226.40361328 159.13496094 -226.40683594 158.14882812 -226.41015625 157.1328125 C-226.41539307 156.22160645 -226.42062988 155.31040039 -226.42602539 154.37158203 C-226.3125 152.125 -226.3125 152.125 -225.3125 150.125 C-225.26689607 147.95881332 -225.27415792 145.79132738 -225.3125 143.625 C-225.42361111 137.34722222 -225.42361111 137.34722222 -224.3125 135.125 C-224.28187409 132.32929215 -224.37964209 129.54805175 -224.47265625 126.75390625 C-224.3125 124.125 -224.3125 124.125 -222.3125 121.125 C-219.6328125 120.4296875 -219.6328125 120.4296875 -216.4375 120 C-212.99470325 119.51783928 -209.67573208 118.9954836 -206.3125 118.125 C-204.31653952 117.72906219 -202.31603539 117.35562753 -200.3125 117 C-199.28125 116.81179687 -198.25 116.62359375 -197.1875 116.4296875 C-194.50491714 116.14539203 -192.83548959 116.26378721 -190.3125 117.125 C-190.3125 116.465 -190.3125 115.805 -190.3125 115.125 C-184.8675 114.135 -184.8675 114.135 -179.3125 113.125 C-179.32410156 112.13757813 -179.33570313 111.15015625 -179.34765625 110.1328125 C-179.35667969 108.85148437 -179.36570313 107.57015625 -179.375 106.25 C-179.38660156 104.97382813 -179.39820313 103.69765625 -179.41015625 102.3828125 C-179.3125 99.125 -179.3125 99.125 -178.3125 97.125 C-178.26545667 94.30534062 -178.26953005 91.50587358 -178.3125 88.6875 C-178.45618386 70.41236772 -178.45618386 70.41236772 -176.3125 66.125 C-176.28735197 64.73305648 -176.3222524 63.33970944 -176.390625 61.94921875 C-176.41640625 61.12099609 -176.4421875 60.29277344 -176.46875 59.43945312 C-176.53085482 57.69922421 -176.6087828 55.95948236 -176.703125 54.22070312 C-176.81319837 49.7799306 -176.79587928 47.78053015 -174.0859375 44.10546875 C-171.46678218 42.23517051 -169.81417675 41.31946346 -166.6875 40.75 C-165.93210938 40.59789062 -165.17671875 40.44578125 -164.3984375 40.2890625 C-162.3125 40.125 -162.3125 40.125 -159.3125 41.125 C-159.3125 40.465 -159.3125 39.805 -159.3125 39.125 C-157.87746445 38.76097631 -156.43933494 38.40913409 -155 38.0625 C-153.79923828 37.76666016 -153.79923828 37.76666016 -152.57421875 37.46484375 C-150.3125 37.125 -150.3125 37.125 -147.3125 38.125 C-147.3125 37.465 -147.3125 36.805 -147.3125 36.125 C-146.67183594 36.00382812 -146.03117187 35.88265625 -145.37109375 35.7578125 C-141.29346225 34.96780938 -137.28172276 34.17106394 -133.3125 32.9375 C-130.3125 32.125 -130.3125 32.125 -128.3125 33.125 C-128.3125 32.465 -128.3125 31.805 -128.3125 31.125 C-119.34939178 28.70583098 -119.34939178 28.70583098 -115.375 30.3125 C-114.694375 30.910625 -114.01375 31.50875 -113.3125 32.125 C-112.714375 32.62 -112.11625 33.115 -111.5 33.625 C-110.3125 35.125 -110.3125 35.125 -110.3125 38.125 C-108.8275 38.62 -108.8275 38.62 -107.3125 39.125 C-107.3125 39.785 -107.3125 40.445 -107.3125 41.125 C-106.6525 41.125 -105.9925 41.125 -105.3125 41.125 C-102.3125 44.58653846 -102.3125 44.58653846 -102.3125 47.125 C-101.6525 47.125 -100.9925 47.125 -100.3125 47.125 C-99.8175 49.105 -99.8175 49.105 -99.3125 51.125 C-98.6525 51.125 -97.9925 51.125 -97.3125 51.125 C-92.58173077 56.31730769 -92.58173077 56.31730769 -91.3125 60.125 C-89.66761706 61.81316933 -87.99912458 63.47853315 -86.3125 65.125 C-84.09058832 67.50872517 -83.35170685 68.67729548 -83.0637207 71.96582031 C-83.12132568 73.03413086 -83.17893066 74.10244141 -83.23828125 75.203125 C-83.32045898 76.94335938 -83.32045898 76.94335938 -83.40429688 78.71875 C-83.47712891 79.9253125 -83.54996094 81.131875 -83.625 82.375 C-83.68623047 83.59703125 -83.74746094 84.8190625 -83.81054688 86.078125 C-83.96373657 89.09478358 -84.13158121 92.10989814 -84.3125 95.125 C-82.55437392 94.98166017 -80.79663097 94.8336161 -79.0390625 94.68359375 C-77.57073975 94.5606897 -77.57073975 94.5606897 -76.07275391 94.43530273 C-72.92643744 94.08159955 -70.20598788 93.41945511 -67.3125 92.125 C-65.89989043 89.29978086 -66.1827233 86.9178639 -66.1796875 83.76171875 C-66.17775391 81.84262695 -66.17775391 81.84262695 -66.17578125 79.88476562 C-66.17787598 79.21614502 -66.1799707 78.54752441 -66.18212891 77.85864258 C-66.18745192 75.83081481 -66.1821945 73.80321125 -66.17578125 71.77539062 C-66.17707031 70.49212891 -66.17835938 69.20886719 -66.1796875 67.88671875 C-66.18137939 66.122677 -66.18137939 66.122677 -66.18310547 64.32299805 C-66.29909977 61.45618796 -66.69438975 58.91645593 -67.3125 56.125 C-67.92335302 42.82996361 -66.90526368 29.40700533 -66.3125 16.125 C-65.22710937 15.815625 -64.14171875 15.50625 -63.0234375 15.1875 C-60.65846436 14.51037085 -58.29614371 13.8238574 -55.9375 13.125 C-53.15083645 12.35626523 -50.37202542 11.61487749 -47.5625 10.9375 C-46.82515625 10.75832031 -46.0878125 10.57914063 -45.328125 10.39453125 C-43.3125 10.125 -43.3125 10.125 -40.3125 11.125 C-40.3125 10.465 -40.3125 9.805 -40.3125 9.125 C-38.87746445 8.76097631 -37.43933494 8.40913409 -36 8.0625 C-34.79923828 7.76666016 -34.79923828 7.76666016 -33.57421875 7.46484375 C-31.3125 7.125 -31.3125 7.125 -28.3125 8.125 C-28.3125 7.465 -28.3125 6.805 -28.3125 6.125 C-27.67183594 6.00382812 -27.03117188 5.88265625 -26.37109375 5.7578125 C-17.48757191 4.10022385 -17.48757191 4.10022385 -9.0078125 1.0703125 C-5.85037796 -0.03707758 -3.33608976 -0.07332065 0 0 Z " fill="#3C1E09" transform="translate(226.3125,23.875)"/>
<path d="M0 0 C0 4.29 0 8.58 0 13 C-2.21354167 13.48828125 -4.42708333 13.9765625 -6.640625 14.46484375 C-8.76888049 14.9475772 -10.88389811 15.46707028 -13 16 C-12.92816246 17.10276779 -12.92816246 17.10276779 -12.85487366 18.22781372 C-12.39428771 25.31135498 -11.93839558 32.39518126 -11.48720646 39.47932625 C-11.25534666 43.11739978 -11.02194787 46.75535794 -10.78442383 50.39306641 C-9.48881605 70.25773706 -8.53037509 90.0989457 -8 110 C-9.7491497 110.33776684 -11.49936145 110.67003671 -13.25 111 C-14.22453125 111.185625 -15.1990625 111.37125 -16.203125 111.5625 C-19 112 -19 112 -23 112 C-23 116.95 -23 121.9 -23 127 C-29.93 127.99 -29.93 127.99 -37 129 C-37 133.62 -37 138.24 -37 143 C-46.31623127 144.78022243 -55.66099034 146.08978177 -65.06323242 147.32543945 C-66.99177137 147.57984851 -68.91972525 147.83868044 -70.84765625 148.09765625 C-71.98211182 148.24726807 -73.11656738 148.39687988 -74.28540039 148.55102539 C-76.95751693 148.855729 -76.95751693 148.855729 -79 150 C-81.54615009 150.23172827 -84.07396225 150.41894529 -86.625 150.5625 C-87.33140625 150.60568359 -88.0378125 150.64886719 -88.765625 150.69335938 C-90.51018537 150.79944751 -92.25506697 150.90022889 -94 151 C-94 146.38 -94 141.76 -94 137 C-100.435 137.99 -100.435 137.99 -107 139 C-107 125.8 -107 112.6 -107 99 C-102.91625 98.175 -98.8325 97.35 -94.625 96.5 C-93.33803223 96.23896484 -92.05106445 95.97792969 -90.72509766 95.70898438 C-89.71495605 95.50595703 -88.70481445 95.30292969 -87.6640625 95.09375 C-86.62717285 94.88427734 -85.5902832 94.67480469 -84.52197266 94.45898438 C-82 94 -82 94 -80 94 C-80 102.91 -80 111.82 -80 121 C-72.23623793 119.68628094 -72.23623793 119.68628094 -64.47338867 118.3671875 C-63.5063501 118.20476562 -62.53931152 118.04234375 -61.54296875 117.875 C-60.55321045 117.70742187 -59.56345215 117.53984375 -58.54370117 117.3671875 C-56 117 -56 117 -53 117 C-53 112.38 -53 107.76 -53 103 C-48.15718846 101.84350769 -43.97969773 100.94197002 -39 101 C-39.05637634 99.79969147 -39.05637634 99.79969147 -39.1138916 98.57513428 C-39.46986534 90.98546742 -39.82313083 83.39568139 -40.17345428 75.8057518 C-40.35359472 71.90493647 -40.53473402 68.00417317 -40.71826172 64.10351562 C-40.89577028 60.32996733 -41.0705171 56.55629984 -41.24345398 52.78253937 C-41.30946656 51.35221151 -41.37642724 49.92192705 -41.44441223 48.49169159 C-41.84791812 39.98768747 -42.06951072 31.51506373 -42 23 C-46.29 23.66 -50.58 24.32 -55 25 C-55.96070434 22.11788698 -56.10581883 20.30149956 -56.0625 17.3125 C-56.05347656 16.50425781 -56.04445312 15.69601563 -56.03515625 14.86328125 C-56.02355469 14.24839844 -56.01195312 13.63351563 -56 13 C-54.74445313 12.74605469 -53.48890625 12.49210937 -52.1953125 12.23046875 C-40.78738667 9.91792061 -40.78738667 9.91792061 -29.5859375 6.78515625 C-7.23880597 0 -7.23880597 0 0 0 Z " fill="#C6AA52" transform="translate(225,36)"/>
<path d="M0 0 C0 3.96 0 7.92 0 12 C-3.63 12.66 -7.26 13.32 -11 14 C-11.02283554 15.04632599 -11.04567108 16.09265198 -11.06919861 17.17068481 C-11.2860283 27.08508928 -11.50651845 36.99940666 -11.73049068 46.91365242 C-11.84549107 52.0092915 -11.95925139 57.10495168 -12.07006836 62.20068359 C-12.1772822 67.12854864 -12.28789622 72.05632721 -12.40075874 76.98406601 C-12.44300224 78.85366048 -12.4840697 80.72328194 -12.5238781 82.59292984 C-12.7482862 93.09302267 -13.11048453 103.53123856 -14 114 C-17.41610229 114.50393508 -20.83289816 115.00288558 -24.25 115.5 C-25.21808594 115.64308594 -26.18617187 115.78617187 -27.18359375 115.93359375 C-28.11816406 116.06894531 -29.05273438 116.20429688 -30.015625 116.34375 C-31.30388184 116.53227539 -31.30388184 116.53227539 -32.61816406 116.72460938 C-35 117 -35 117 -39 117 C-39 121.29 -39 125.58 -39 130 C-41.97526723 131.48763362 -45.1463539 131.59452782 -48.4140625 131.97265625 C-49.14370209 132.06002548 -49.87334167 132.14739471 -50.62509155 132.2374115 C-52.95799332 132.51594341 -55.29147081 132.78927943 -57.625 133.0625 C-59.20576979 133.25030943 -60.78649954 133.43845625 -62.3671875 133.62695312 C-66.24433765 134.08855323 -70.12201209 134.54549401 -74 135 C-74.08167446 133.58430936 -74.13949698 132.16723195 -74.1875 130.75 C-74.22230469 129.96109375 -74.25710937 129.1721875 -74.29296875 128.359375 C-73.92216553 125.37317304 -73.12757064 124.11385568 -71 122 C-68.82348633 121.27050781 -68.82348633 121.27050781 -66.33203125 120.953125 C-65.52741455 120.84129883 -64.72279785 120.72947266 -63.89379883 120.61425781 C-62.36855591 120.4339502 -62.36855591 120.4339502 -60.8125 120.25 C-57.574375 119.8375 -54.33625 119.425 -51 119 C-50.67 110.75 -50.34 102.5 -50 94 C-42.125 91.75 -42.125 91.75 -38 92 C-37.96241577 90.58690552 -37.96241577 90.58690552 -37.92407227 89.14526367 C-37.82805983 85.59846424 -37.72888952 82.05178063 -37.62768555 78.50512695 C-37.58478339 76.97977058 -37.54308432 75.45437981 -37.50268555 73.92895508 C-37.29674224 66.1819274 -37.02175415 58.48285788 -36.23852539 50.76831055 C-35.73835075 44.96331547 -35.62160668 39.13449636 -35.4375 33.3125 C-35.39431641 32.02666016 -35.35113281 30.74082031 -35.30664062 29.41601562 C-35.20163202 26.27742506 -35.09947595 23.13876996 -35 20 C-38.63 20.66 -42.26 21.32 -46 22 C-45.67 18.37 -45.34 14.74 -45 11 C-39.23759471 8.92175547 -33.7292541 7.46899508 -27.67578125 6.52734375 C-24.66887567 5.93474192 -21.9033977 4.9808776 -19 4 C-16.28267432 3.24325459 -13.54962971 2.55612905 -10.8125 1.875 C-9.74612305 1.60236328 -9.74612305 1.60236328 -8.65820312 1.32421875 C-5.69535741 0.58281051 -3.06668869 0 0 0 Z " fill="#C5A952" transform="translate(106,65)"/>
<path d="M0 0 C0.02712325 2.87506421 0.04689851 5.74986908 0.0625 8.625 C0.07087891 9.43324219 0.07925781 10.24148437 0.08789062 11.07421875 C0.1058955 15.50341918 -0.10377338 19.63883424 -1 24 C-0.01902344 23.68289062 0.96195313 23.36578125 1.97265625 23.0390625 C6.11926782 21.85431634 10.14539137 21.5634915 14.4375 21.375 C15.53481445 21.31699219 15.53481445 21.31699219 16.65429688 21.2578125 C18.43583532 21.16466016 20.21788122 21.08129714 22 21 C22 24.96 22 28.92 22 33 C16.08597425 34.97134192 10.20140583 35.66233284 4.01171875 36.33984375 C0.69805478 36.70109967 0.69805478 36.70109967 -1 40 C-1.45394552 42.27912938 -1.45394552 42.27912938 -1.625 44.6875 C-1.75 46.125 -1.875 47.5625 -2 49 C-1.43039551 48.87447754 -0.86079102 48.74895508 -0.27392578 48.61962891 C6.82038611 47.12170554 13.92439367 46.19553421 21.125 45.375 C22.27226563 45.2409375 23.41953125 45.106875 24.6015625 44.96875 C27.4006194 44.64219336 30.20025249 44.32058178 33 44 C33 39.71 33 35.42 33 31 C36.12889199 30.217777 38.1400091 29.88566682 41.25 29.9375 C43.10625 29.9684375 43.10625 29.9684375 45 30 C44.90468994 30.83692383 44.80937988 31.67384766 44.71118164 32.53613281 C44.58227359 36.41612642 44.79181567 39.29623041 46 43 C50.28800746 46.95909135 55.20079574 49.26399333 60.4375 51.75 C61.81544754 52.44861373 63.19113472 53.1517048 64.56445312 53.859375 C68.01866184 55.62648129 71.50064749 57.32421185 75 59 C75.66 59.33 76.32 59.66 77 60 C77 60.66 77 61.32 77 62 C70.61445073 62.71901658 64.22806752 63.43024547 57.84106445 64.13623047 C55.67127143 64.37697748 53.5016707 64.61946457 51.33227539 64.86376953 C48.20248348 65.21591604 45.07203873 65.56166608 41.94140625 65.90625 C40.98166397 66.0156189 40.02192169 66.12498779 39.03309631 66.2376709 C23.00312224 67.98134643 23.00312224 67.98134643 16.0390625 64.76953125 C14.98976562 64.29580078 13.94046875 63.82207031 12.859375 63.33398438 C11.79203125 62.83189453 10.7246875 62.32980469 9.625 61.8125 C8.56539062 61.32974609 7.50578125 60.84699219 6.4140625 60.34960938 C4.30819084 59.38828929 2.20556495 58.41982331 0.10644531 57.44384766 C-4.58160161 55.26488589 -9.29138193 53.13405021 -14 51 C-14.07654536 46.48382401 -14.10228696 42.40914783 -13 38 C-13.99 38.495 -13.99 38.495 -15 39 C-16.54023996 39.06950541 -18.08334988 39.08452357 -19.625 39.0625 C-20.85089844 39.04896484 -20.85089844 39.04896484 -22.1015625 39.03515625 C-22.72804688 39.02355469 -23.35453125 39.01195312 -24 39 C-23.73829872 34.51565149 -23.47164368 30.03163303 -23.20043945 25.54785156 C-23.10891457 24.02319275 -23.01873228 22.49845272 -22.92993164 20.97363281 C-22.80189152 18.77906813 -22.66899019 16.58484304 -22.53515625 14.390625 C-22.49656998 13.7113092 -22.4579837 13.03199341 -22.41822815 12.33209229 C-22.21761777 9.11777672 -21.93716295 6.08954818 -21 3 C-13.9680206 0.80250644 -7.40076485 -0.06298523 0 0 Z " fill="#78511A" transform="translate(34,151)"/>
<path d="M0 0 C0 4.29 0 8.58 0 13 C-2.21354167 13.48828125 -4.42708333 13.9765625 -6.640625 14.46484375 C-8.76888049 14.9475772 -10.88389811 15.46707028 -13 16 C-12.93941406 17.001521 -12.87882812 18.00304199 -12.81640625 19.03491211 C-12.58767359 22.83865679 -12.36569659 26.64277348 -12.14550781 30.44702148 C-12.05027475 32.0770088 -11.95333663 33.70689762 -11.85449219 35.33666992 C-11.17457363 46.57267105 -10.87019136 57.74360791 -11 69 C-16.38118985 70.28737292 -21.63427275 71.27703592 -27.15234375 71.75390625 C-29.09155094 71.910271 -29.09155094 71.910271 -31 73 C-32.54023996 73.06950541 -34.08334988 73.08452357 -35.625 73.0625 C-36.44226563 73.05347656 -37.25953125 73.04445313 -38.1015625 73.03515625 C-38.72804687 73.02355469 -39.35453125 73.01195313 -40 73 C-40.28903315 67.80816526 -40.57367321 62.61611365 -40.85449219 57.42382812 C-40.9503317 55.66269659 -41.04730825 53.90162651 -41.14550781 52.140625 C-41.68707731 42.41447894 -42.12781513 32.74590353 -42 23 C-46.29 23.66 -50.58 24.32 -55 25 C-55.96070434 22.11788698 -56.10581883 20.30149956 -56.0625 17.3125 C-56.05347656 16.50425781 -56.04445312 15.69601563 -56.03515625 14.86328125 C-56.02355469 14.24839844 -56.01195312 13.63351563 -56 13 C-54.74445313 12.74605469 -53.48890625 12.49210937 -52.1953125 12.23046875 C-40.78738667 9.91792061 -40.78738667 9.91792061 -29.5859375 6.78515625 C-7.23880597 0 -7.23880597 0 0 0 Z " fill="#DCC972" transform="translate(225,36)"/>
<path d="M0 0 C1.00109515 3.31070838 1.10356134 6.30084769 1.0625 9.75 C1.05347656 10.73484375 1.04445313 11.7196875 1.03515625 12.734375 C1.02355469 13.48203125 1.01195312 14.2296875 1 15 C-0.485 15.2475 -0.485 15.2475 -2 15.5 C-2.556875 15.5928125 -3.11375 15.685625 -3.6875 15.78125 C-7.12937799 16.10683305 -10.54332402 16.02880563 -14 16 C-13.83878936 26.46629047 -12.93524489 33.59352633 -5.25732422 41.08056641 C-3.85043455 42.40019271 -2.42565472 43.70066911 -1 45 C5 51.46679317 5 51.46679317 5 54 C-5.46824117 55.4049714 -15.94089894 56.75624198 -26.42579651 58.03140259 C-31.48281913 58.65553018 -36.49910179 59.38790643 -41.5234375 60.234375 C-51.23931206 61.71284592 -58.27309685 62.40387293 -66.71948242 56.77294922 C-69.63588347 54.56612371 -72.37182131 52.22963131 -75.05517578 49.74609375 C-78.19190605 46.92988802 -81.58979978 44.47232441 -85 42 C-82.39474888 39.39474888 -81.06624988 39.68537675 -77.4375 39.5 C-73.86768283 39.3143138 -70.52662141 38.93261437 -67.05859375 38.1015625 C-60.99525177 36.68842242 -54.83606119 35.93955826 -48.66845703 35.14013672 C-46.60776567 34.87276386 -44.5480038 34.59894602 -42.48828125 34.32421875 C-32.42222744 33 -32.42222744 33 -29 33 C-29.33 28.38 -29.66 23.76 -30 19 C-24.75614911 17.2520497 -20.52677733 16.80607799 -15 17 C-15 12.05 -15 7.1 -15 2 C-4.5 0 -4.5 0 0 0 Z " fill="#78511A" transform="translate(217,146)"/>
<path d="M0 0 C0 8.91 0 17.82 0 27 C7.76376207 25.68628094 7.76376207 25.68628094 15.52661133 24.3671875 C16.4936499 24.20476562 17.46068848 24.04234375 18.45703125 23.875 C19.44678955 23.70742187 20.43654785 23.53984375 21.45629883 23.3671875 C24 23 24 23 27 23 C27 18.38 27 13.76 27 9 C36.57142857 6.71428571 36.57142857 6.71428571 41 7 C41 5.35 41 3.7 41 2 C41.33 2 41.66 2 42 2 C42 8.27 42 14.54 42 21 C32.5 23 32.5 23 28 23 C28 27.62 28 32.24 28 37 C22.24435497 38.81590995 16.53183216 39.78267523 10.5625 40.625 C9.17901367 40.82609375 9.17901367 40.82609375 7.76757812 41.03125 C5.51233396 41.35843568 3.25624848 41.67981337 1 42 C1 46.62 1 51.24 1 56 C-3.95 56.33 -8.9 56.66 -14 57 C-14 52.38 -14 47.76 -14 43 C-18.29 43.66 -22.58 44.32 -27 45 C-27 31.8 -27 18.6 -27 5 C-22.91625 4.175 -18.8325 3.35 -14.625 2.5 C-13.33803223 2.23896484 -12.05106445 1.97792969 -10.72509766 1.70898438 C-9.71495605 1.50595703 -8.70481445 1.30292969 -7.6640625 1.09375 C-6.62717285 0.88427734 -5.5902832 0.67480469 -4.52197266 0.45898438 C-2 0 -2 0 0 0 Z " fill="#976E26" transform="translate(145,130)"/>
<path d="M0 0 C0 3.96 0 7.92 0 12 C-3.63 12.66 -7.26 13.32 -11 14 C-11.03758423 15.53370239 -11.03758423 15.53370239 -11.07592773 17.09838867 C-11.17132963 20.95459898 -11.27120505 24.81068352 -11.37231445 28.66674805 C-11.41516883 30.32394432 -11.4568694 31.98117091 -11.49731445 33.63842773 C-11.73781166 43.45724596 -12.10785329 53.2148473 -13 63 C-15.70726366 63.5064814 -18.41557124 64.005351 -21.125 64.5 C-21.88554688 64.64308594 -22.64609375 64.78617187 -23.4296875 64.93359375 C-27.68042914 65.70312456 -31.65859197 66.16644376 -36 66 C-36.18276118 50.64806114 -35.61091592 35.33835318 -35 20 C-38.63 20.66 -42.26 21.32 -46 22 C-45.67 18.37 -45.34 14.74 -45 11 C-39.23759471 8.92175547 -33.7292541 7.46899508 -27.67578125 6.52734375 C-24.66887567 5.93474192 -21.9033977 4.9808776 -19 4 C-16.28267432 3.24325459 -13.54962971 2.55612905 -10.8125 1.875 C-10.10158203 1.69324219 -9.39066406 1.51148437 -8.65820312 1.32421875 C-5.69535741 0.58281051 -3.06668869 0 0 0 Z " fill="#DCCA73" transform="translate(106,65)"/>
<path d="M0 0 C0 13.2 0 26.4 0 40 C-3.47330128 40.69466026 -5.91302863 41.12011816 -9.3125 41.0625 C-11.1378125 41.0315625 -11.1378125 41.0315625 -13 41 C-13 37.04 -13 33.08 -13 29 C-19.435 29.495 -19.435 29.495 -26 30 C-26 21.42 -26 12.84 -26 4 C-22.638125 3.34 -19.27625 2.68 -15.8125 2 C-14.76167236 1.79117188 -13.71084473 1.58234375 -12.62817383 1.3671875 C-11.78794678 1.20476562 -10.94771973 1.04234375 -10.08203125 0.875 C-8.80162964 0.62363281 -8.80162964 0.62363281 -7.49536133 0.3671875 C-5 0 -5 0 0 0 Z " fill="#CBB057" transform="translate(144,131)"/>
<path d="M0 0 C0.25897692 12.17191501 -0.40218845 23.93081636 -2 36 C-5.47325181 37.1577506 -8.36067448 37.06866652 -12 37 C-12 33.37 -12 29.74 -12 26 C-15.3 26 -18.6 26 -22 26 C-22.02699468 22.91660796 -22.0468366 19.83345281 -22.0625 16.75 C-22.07087891 15.87730469 -22.07925781 15.00460938 -22.08789062 14.10546875 C-22.09111328 13.26113281 -22.09433594 12.41679687 -22.09765625 11.546875 C-22.10551147 10.38430176 -22.10551147 10.38430176 -22.11352539 9.19824219 C-22.00036998 7.00716402 -21.60552448 5.10362139 -21 3 C-13.9680206 0.80250644 -7.40076485 -0.06298523 0 0 Z " fill="#CAAF57" transform="translate(34,151)"/>
<path d="M0 0 C0.33 0 0.66 0 1 0 C1 1.65 1 3.3 1 5 C4.3 5 7.6 5 11 5 C11 8.63 11 12.26 11 16 C14.3 15.67 17.6 15.34 21 15 C21 11.04 21 7.08 21 3 C23.49840454 2.49061655 25.99823388 1.99236886 28.5 1.5 C29.19609375 1.35691406 29.8921875 1.21382812 30.609375 1.06640625 C35.49087203 0.11722627 40.02718299 -0.13440046 45 0 C45 3.96 45 7.92 45 12 C39.08597425 13.97134192 33.20140583 14.66233284 27.01171875 15.33984375 C23.69805478 15.70109967 23.69805478 15.70109967 22 19 C21.54398739 21.50896686 21.54398739 21.50896686 21.375 24.1875 C21.25125 25.775625 21.1275 27.36375 21 29 C17.04 29.33 13.08 29.66 9 30 C8.92345464 25.48382401 8.89771304 21.40914783 10 17 C9.34 17.33 8.68 17.66 8 18 C5.03 18 2.06 18 -1 18 C-0.505 9.09 -0.505 9.09 0 0 Z " fill="#986F26" transform="translate(11,172)"/>
<path d="M0 0 C2.0026524 17.71277998 3.20083273 35.17051691 3 53 C-2.3754363 54.30891238 -7.63724372 55.27729267 -13.15234375 55.75390625 C-15.09155094 55.910271 -15.09155094 55.910271 -17 57 C-18.54023996 57.06950541 -20.08334988 57.08452357 -21.625 57.0625 C-22.85089844 57.04896484 -22.85089844 57.04896484 -24.1015625 57.03515625 C-24.72804687 57.02355469 -25.35453125 57.01195312 -26 57 C-27.32971702 41.01965078 -27.09869574 25.02059606 -27 9 C-26.34 9 -25.68 9 -25 9 C-22.70378384 13.59243232 -23.27377935 19.75834596 -22.9375 24.8125 C-22.84662109 26.07771484 -22.75574219 27.34292969 -22.66210938 28.64648438 C-22.10777307 36.77813954 -21.88371227 44.85038375 -22 53 C-21.07058594 52.79503906 -20.14117187 52.59007812 -19.18359375 52.37890625 C-17.94738281 52.10949219 -16.71117187 51.84007812 -15.4375 51.5625 C-14.21933594 51.29566406 -13.00117188 51.02882812 -11.74609375 50.75390625 C-8.16360843 50.03292641 -4.62040498 49.47992499 -1 49 C-1.15339844 47.90558594 -1.30679688 46.81117187 -1.46484375 45.68359375 C-2.11192764 40.48752151 -2.34929972 35.29181694 -2.5625 30.0625 C-2.6049585 29.06210693 -2.64741699 28.06171387 -2.69116211 27.03100586 C-3.03511921 18.35041437 -3.10492849 9.68574702 -3 1 C-1 0 -1 0 0 0 Z " fill="#F7F4E9" transform="translate(211,52)"/>
<path d="M0 0 C1.00109515 3.31070838 1.10356134 6.30084769 1.0625 9.75 C1.05347656 10.73484375 1.04445312 11.7196875 1.03515625 12.734375 C1.02355469 13.48203125 1.01195312 14.2296875 1 15 C-0.485 15.2475 -0.485 15.2475 -2 15.5 C-2.556875 15.5928125 -3.11375 15.685625 -3.6875 15.78125 C-7.11049267 16.1050466 -10.56172673 16 -14 16 C-14 21.28 -14 26.56 -14 32 C-19.35789122 32.76541303 -23.70518291 33.09289153 -29 33 C-29.33 28.38 -29.66 23.76 -30 19 C-24.75614911 17.2520497 -20.52677733 16.80607799 -15 17 C-15 12.05 -15 7.1 -15 2 C-4.5 0 -4.5 0 0 0 Z " fill="#996F26" transform="translate(217,146)"/>
<path d="M0 0 C0.99 0 1.98 0 3 0 C3.02505256 4.74649691 3.04302359 9.49295383 3.05493164 14.23950195 C3.05990528 15.84823275 3.06668657 17.45695916 3.07543945 19.06567383 C3.12685228 28.77060029 2.95165014 38.33222167 2 48 C-0.70726366 48.5064814 -3.41557124 49.005351 -6.125 49.5 C-6.88554688 49.64308594 -7.64609375 49.78617188 -8.4296875 49.93359375 C-12.68042914 50.70312456 -16.65859197 51.16644376 -21 51 C-21.18275448 35.64862389 -20.61625562 20.33755339 -20 5 C-19.01 4.67 -18.02 4.34 -17 4 C-17 17.86 -17 31.72 -17 46 C-11.980785 45.4980785 -6.94629275 44.98925855 -2 44 C-1.34 29.48 -0.68 14.96 0 0 Z " fill="#FCFAF2" transform="translate(91,80)"/>
<path d="M0 0 C0.33 0 0.66 0 1 0 C1 5.61 1 11.22 1 17 C-3.96924032 18.18668425 -7.85290192 19 -13 19 C-13 15.04 -13 11.08 -13 7 C-9.52630934 5.26315467 -7.92380063 4.69915888 -4.25 4.375 C-3.45078125 4.30023438 -2.6515625 4.22546875 -1.828125 4.1484375 C-1.22484375 4.09945312 -0.6215625 4.05046875 0 4 C0 2.68 0 1.36 0 0 Z " fill="#976E26" transform="translate(225,45)"/>
<path d="M0 0 C0.33 0.99 0.66 1.98 1 3 C2.03125 2.67 3.0625 2.34 4.125 2 C7.73109421 0.84604985 9.85406376 1 14 1 C14 4.96 14 8.92 14 13 C9.58600353 14.32419894 5.60333655 15.23277724 1 16 C0.67 10.72 0.34 5.44 0 0 Z " fill="#987028" transform="translate(169,58)"/>
<path d="M0 0 C1.85625 0.0309375 1.85625 0.0309375 3.75 0.0625 C3.75 4.3525 3.75 8.6425 3.75 13.0625 C-6.42857143 15.33928571 -6.42857143 15.33928571 -10.25 14.0625 C-9.59 14.0625 -8.93 14.0625 -8.25 14.0625 C-8.25 9.7725 -8.25 5.4825 -8.25 1.0625 C-5.12110801 0.280277 -3.1099909 -0.05183318 0 0 Z " fill="#996F26" transform="translate(75.25,180.9375)"/>
<path d="M0 0 C0 4.29 0 8.58 0 13 C-5.94 13.495 -5.94 13.495 -12 14 C-12 9.71 -12 5.42 -12 1 C-7.76358987 0.15271797 -4.27587998 -0.08384078 0 0 Z " fill="#996F26" transform="translate(92,166)"/>
<path d="M0 0 C0 4.29 0 8.58 0 13 C-5.94 13.495 -5.94 13.495 -12 14 C-12 10.04 -12 6.08 -12 2 C-7.69214025 0.64851459 -4.58042408 0 0 0 Z " fill="#966D25" transform="translate(68,157)"/>
<path d="M0 0 C0 3.63 0 7.26 0 11 C-8.625 14 -8.625 14 -12 14 C-12.02686553 12.02090602 -12.04633375 10.04171029 -12.0625 8.0625 C-12.07410156 6.96035156 -12.08570312 5.85820313 -12.09765625 4.72265625 C-12 2 -12 2 -11 1 C-7.26155861 0.36517033 -3.79819843 0 0 0 Z " fill="#9A7129" transform="translate(106,77)"/>
<path d="M0 0 C0 9.24 0 18.48 0 28 C-0.33 28 -0.66 28 -1 28 C-1 22.72 -1 17.44 -1 12 C-4.3 12.33 -7.6 12.66 -11 13 C-11 9.37 -11 5.74 -11 2 C-3.375 0 -3.375 0 0 0 Z " fill="#987231" transform="translate(71,85)"/>
<path d="M0 0 C0.99 0 1.98 0 3 0 C3 11.55 3 23.1 3 35 C2.67 35 2.34 35 2 35 C1.67 30.05 1.34 25.1 1 20 C0.67 20 0.34 20 0 20 C0 13.4 0 6.8 0 0 Z " fill="#EBE8DC" transform="translate(91,80)"/>
<path d="M0 0 C0.33 0 0.66 0 1 0 C1 10.23 1 20.46 1 31 C-0.32 31 -1.64 31 -3 31 C-2.505 29.515 -2.505 29.515 -2 28 C-1.86217159 26.11729227 -1.77520091 24.23065179 -1.71875 22.34375 C-1.68136719 21.23902344 -1.64398438 20.13429688 -1.60546875 18.99609375 C-1.57066406 17.84238281 -1.53585938 16.68867187 -1.5 15.5 C-1.43117633 13.21862285 -1.3584404 10.93735939 -1.28125 8.65625 C-1.25095703 7.64369141 -1.22066406 6.63113281 -1.18945312 5.58789062 C-1 3 -1 3 0 0 Z " fill="#FDFCF9" transform="translate(92,97)"/>
<path d="M0 0 C0.33 0 0.66 0 1 0 C1.05816623 3.41659491 1.09365195 6.83306205 1.125 10.25 C1.15013672 11.70212891 1.15013672 11.70212891 1.17578125 13.18359375 C1.18222656 14.11816406 1.18867187 15.05273438 1.1953125 16.015625 C1.20578613 16.87446289 1.21625977 17.73330078 1.22705078 18.61816406 C0.97874325 21.22299017 0.43576593 22.81921464 -1 25 C-3.3828125 25.609375 -3.3828125 25.609375 -6.125 25.75 C-7.03507812 25.80671875 -7.94515625 25.8634375 -8.8828125 25.921875 C-9.58148438 25.94765625 -10.28015625 25.9734375 -11 26 C-11 24.68 -11 23.36 -11 22 C-7.7 21.34 -4.4 20.68 -1 20 C-0.67 13.4 -0.34 6.8 0 0 Z " fill="#FAF4DA" transform="translate(90,104)"/>
<path d="M0 0 C0.66 0 1.32 0 2 0 C2 9.9 2 19.8 2 30 C1.67 30 1.34 30 1 30 C1 23.07 1 16.14 1 9 C0.34 9 -0.32 9 -1 9 C-1.09765625 2.84765625 -1.09765625 2.84765625 -1 1 C-0.67 0.67 -0.34 0.34 0 0 Z " fill="#F3EDB8" transform="translate(72,84)"/>
<path d="M0 0 C1.32 0 2.64 0 4 0 C4 3.96 4 7.92 4 12 C3.01 12 2.02 12 1 12 C0.03929566 9.11788698 -0.10581883 7.30149956 -0.0625 4.3125 C-0.05347656 3.50425781 -0.04445312 2.69601563 -0.03515625 1.86328125 C-0.02355469 1.24839844 -0.01195312 0.63351563 0 0 Z " fill="#E1DB83" transform="translate(169,49)"/>
<path d="M0 0 C0 4.29 0 8.58 0 13 C-0.99 13 -1.98 13 -3 13 C-3.33 9.04 -3.66 5.08 -4 1 C-2 0 -2 0 0 0 Z " fill="#F0ED8F" transform="translate(225,36)"/>
<path d="M0 0 C0.33 4.29 0.66 8.58 1 13 C0.67 12.01 0.34 11.02 0 10 C-0.66 10 -1.32 10 -2 10 C-2 12.64 -2 15.28 -2 18 C-2.33 18 -2.66 18 -3 18 C-3 12.39 -3 6.78 -3 1 C-1 0 -1 0 0 0 Z " fill="#F5F1C8" transform="translate(211,52)"/>
<path d="M0 0 C0.66 0 1.32 0 2 0 C2 3.63 2 7.26 2 11 C1.01 11 0.02 11 -1 11 C-0.67 7.37 -0.34 3.74 0 0 Z " fill="#F4F29E" transform="translate(61,76)"/>
<path d="M0 0 C0.66 0 1.32 0 2 0 C3.4783226 2.95664519 3.06032783 5.74229737 3 9 C2.01 9 1.02 9 0 9 C0 6.03 0 3.06 0 0 Z " fill="#FDFDD4" transform="translate(184,61)"/>
<path d="M0 0 C0.99 0 1.98 0 3 0 C2.25 7.625 2.25 7.625 0 11 C0 7.37 0 3.74 0 0 Z " fill="#F9F7C2" transform="translate(91,80)"/>
<path d="M0 0 C0.99 0 1.98 0 3 0 C3 1.65 3 3.3 3 5 C2.67 4.34 2.34 3.68 2 3 C1.34 3 0.68 3 0 3 C0 6.3 0 9.6 0 13 C-0.33 13 -0.66 13 -1 13 C-1.02686553 11.02090602 -1.04633375 9.04171029 -1.0625 7.0625 C-1.07410156 5.96035156 -1.08570313 4.85820313 -1.09765625 3.72265625 C-1 1 -1 1 0 0 Z " fill="#E9DFA3" transform="translate(184,58)"/>
<path d="M0 0 C0.33 0 0.66 0 1 0 C1 3.96 1 7.92 1 12 C1.66 12.33 2.32 12.66 3 13 C2.01 13.99 1.02 14.98 0 16 C0 15.01 0 14.02 0 13 C-0.99 12.67 -1.98 12.34 -3 12 C-2.01 12 -1.02 12 0 12 C0 8.04 0 4.08 0 0 Z " fill="#AE8D3B" transform="translate(32,175)"/>
<path d="M0 0 C0.33 0 0.66 0 1 0 C1.33 4.95 1.66 9.9 2 15 C-0.6666419 16.33332095 -2.16680303 15.67102033 -5 15 C-5 14.67 -5 14.34 -5 14 C-3.35 14 -1.7 14 0 14 C0 9.38 0 4.76 0 0 Z " fill="#AC8A39" transform="translate(144,157)"/>
<path d="M0 0 C0 2.31 0 4.62 0 7 C-0.99 7 -1.98 7 -3 7 C-3 5.02 -3 3.04 -3 1 C-1 0 -1 0 0 0 Z " fill="#FCFCAF" transform="translate(225,42)"/>
<path d="M0 0 C0 1.98 0 3.96 0 6 C-0.99 6.33 -1.98 6.66 -3 7 C-3 5.02 -3 3.04 -3 1 C-1 0 -1 0 0 0 Z " fill="#FDFDC6" transform="translate(211,52)"/>
<path d="M0 0 C0.99 0.33 1.98 0.66 3 1 C3 2.65 3 4.3 3 6 C2.01 6 1.02 6 0 6 C0 4.02 0 2.04 0 0 Z " fill="#FBFBAD" transform="translate(170,55)"/>
<path d="" fill="#000000" transform="translate(0,0)"/>
<path d="M0 0 C2 1 2 1 2 1 Z " fill="#000000" transform="translate(151,117)"/>
<path d="" fill="#000000" transform="translate(0,0)"/>
<path d="" fill="#000000" transform="translate(0,0)"/>
<path d="" fill="#000000" transform="translate(0,0)"/>
</svg>
